<svg xmlns="http://www.w3.org/2000/svg" width="64" height="64" viewBox="0 0 64 64"><path d="M3,0 L45,0 C46.659375,0 48,1.340625 48,3 L48,6 C48,7.659375 46.659375,9 45,9 L3,9 C1.340625,9 0,7.659375 0,6 L0,3 C0,1.340625 1.340625,0 3,0 Z M3,12 L45,12 L45,36 C45,39.309375 42.309375,42 39,42 L9,42 C5.690625,42 3,39.309375 3,36 L3,12 Z M15,19.5 C15,20.325 15.675,21 16.5,21 L31.5,21 C32.325,21 33,20.325 33,19.5 C33,18.675 32.325,18 31.5,18 L16.5,18 C15.675,18 15,18.675 15,19.5 Z" transform="translate(8 11)"/></svg>